<?xml version="1.0" encoding="utf-8"?>
<!-- Generator: Adobe Illustrator 19.0.0, SVG Export Plug-In . SVG Version: 6.00 Build 0)  -->
<svg version="1.0" id="图层_1" xmlns="http://www.w3.org/2000/svg" xmlns:xlink="http://www.w3.org/1999/xlink" x="0px" y="0px"
	 viewBox="0 0 15 16" style="enable-background:new 0 0 15 16;" xml:space="preserve">
<style type="text/css">
	.st0{fill:#FFFFFF;}
</style>
<path id="XMLID_78_" class="st0" d="M14.8,15l-2.4-2.5c1.4-1.4,2.2-3.2,2.2-5.2c0-4-3.3-7.3-7.3-7.3S0,3.3,0,7.3s3.3,7.3,7.3,7.3
	c0.8,0,1.5-0.1,2.3-0.4c0.3-0.1,0.5-0.4,0.4-0.7c-0.1-0.3-0.4-0.5-0.7-0.4c-0.6,0.2-1.3,0.3-1.9,0.3c-3.4,0-6.2-2.8-6.2-6.2
	s2.8-6.2,6.2-6.2c3.4,0,6.2,2.8,6.2,6.2c0,1.8-0.8,3.6-2.2,4.7c0,0,0,0,0,0c0,0,0,0,0,0c0,0-0.1,0.1-0.1,0.1c0,0,0,0,0,0
	c0,0.1-0.1,0.1-0.1,0.2c0,0,0,0,0,0c0,0.1,0,0.1,0,0.2c0,0,0,0,0,0c0,0.1,0.1,0.1,0.1,0.2c0,0,0,0,0,0c0,0,0,0,0,0c0,0,0,0,0,0
	l2.8,2.9c0.1,0.1,0.3,0.2,0.4,0.2c0.1,0,0.3-0.1,0.4-0.2C15.1,15.6,15.1,15.3,14.8,15z"/>
</svg>
